<svg width="18" height="18" viewBox="0 0 18 18" fill="none" xmlns="http://www.w3.org/2000/svg">
<path d="M9 15.2061V2.24609" stroke="#A9ABAD" stroke-width="1.44" stroke-linecap="round" stroke-linejoin="round"/>
<path d="M5.68481 8.75238C5.68481 7.95709 5.0401 7.31238 4.24481 7.31238C3.44952 7.31238 2.80481 7.95709 2.80481 8.75238C2.80481 9.54767 3.44952 10.1924 4.24481 10.1924C5.0401 10.1924 5.68481 9.54767 5.68481 8.75238Z" stroke="#A9ABAD" stroke-width="1.44"/>
<path d="M7.9397 8.75293H8.9999" stroke="#A9ABAD" stroke-width="1.44" stroke-linecap="round" stroke-linejoin="round"/>
<path d="M5.68481 8.75293H6.55194" stroke="#A9ABAD" stroke-width="1.44" stroke-linecap="round" stroke-linejoin="round"/>
<path d="M12.3152 5.0268C12.3152 4.23151 12.9599 3.5868 13.7552 3.5868C14.5505 3.5868 15.1952 4.23151 15.1952 5.0268C15.1952 5.82209 14.5505 6.4668 13.7552 6.4668C12.9599 6.4668 12.3152 5.82209 12.3152 5.0268Z" stroke="#A9ABAD" stroke-width="1.44"/>
<path d="M10.0603 5.02638L9.00012 5.02637" stroke="#A9ABAD" stroke-width="1.44" stroke-linecap="round" stroke-linejoin="round"/>
<path d="M12.3153 5.02638L11.4481 5.02637" stroke="#A9ABAD" stroke-width="1.44" stroke-linecap="round" stroke-linejoin="round"/>
<path d="M12.3152 12.4252C12.3152 11.6299 12.9599 10.9852 13.7552 10.9852C14.5505 10.9852 15.1952 11.6299 15.1952 12.4252C15.1952 13.2205 14.5505 13.8652 13.7552 13.8652C12.9599 13.8652 12.3152 13.2205 12.3152 12.4252Z" stroke="#A9ABAD" stroke-width="1.44"/>
<path d="M10.0603 12.4248H9.00012" stroke="#A9ABAD" stroke-width="1.44" stroke-linecap="round" stroke-linejoin="round"/>
<path d="M12.3153 12.4248H11.4481" stroke="#A9ABAD" stroke-width="1.44" stroke-linecap="round" stroke-linejoin="round"/>
</svg>
