<svg width="18" height="18" viewBox="0 0 18 18" fill="none" xmlns="http://www.w3.org/2000/svg">
<path d="M15.826 5.96269V12.0357C15.826 14.1583 14.3275 15.4795 12.207 15.4795H6.48496C4.36442 15.4795 2.86597 14.1583 2.86597 12.035V5.96269C2.86597 3.84005 4.36442 2.51953 6.48496 2.51953H12.207C14.3275 2.51953 15.826 3.84635 15.826 5.96269Z" stroke="#DD5313" stroke-width="1.44" stroke-linecap="round" stroke-linejoin="round"/>
<path d="M6.25073 6.92397C6.25073 6.40137 6.67456 5.97754 7.19717 5.97754H11.495C12.0176 5.97754 12.4414 6.40137 12.4414 6.92397V7.40454C12.4414 7.78076 12.2817 8.14011 12.0021 8.39233L10.2662 10.1087C10.152 10.2116 10.0869 10.358 10.0869 10.5121V11.2134C10.0869 11.4355 9.951 11.6351 9.74501 11.7171L9.0816 11.9812C8.72506 12.1234 8.33834 11.8607 8.33834 11.4775V10.3405C8.33834 10.1969 8.28089 10.0589 8.1793 9.9566L6.64023 8.58637C6.39084 8.33696 6.25073 7.99928 6.25073 7.64691V6.92397Z" stroke="#DD5313" stroke-width="1.44" stroke-linecap="round" stroke-linejoin="round"/>
</svg>
