<svg width="18" height="18" viewBox="0 0 18 18" fill="none" xmlns="http://www.w3.org/2000/svg">
<path fill-rule="evenodd" clip-rule="evenodd" d="M15.605 5.71814L15.1382 4.90807C14.7432 4.22263 13.868 3.98617 13.1816 4.37946C12.8549 4.57194 12.465 4.62654 12.098 4.53124C11.731 4.43594 11.4169 4.19857 11.2251 3.87146C11.1017 3.66354 11.0354 3.42672 11.0329 3.18496C11.044 2.79734 10.8978 2.42173 10.6275 2.14368C10.3572 1.86563 9.98588 1.70882 9.59811 1.70898H8.65761C8.27771 1.70898 7.91347 1.86036 7.64548 2.12964C7.3775 2.39891 7.22786 2.76387 7.22969 3.14377C7.21843 3.92812 6.57934 4.55804 5.79491 4.55795C5.55314 4.55544 5.31633 4.48914 5.10841 4.36574C4.42203 3.97244 3.54682 4.2089 3.15189 4.89434L2.65074 5.71814C2.25629 6.40272 2.48953 7.27738 3.17248 7.67466C3.61641 7.93096 3.88988 8.40462 3.88988 8.91722C3.88988 9.42982 3.61641 9.90349 3.17248 10.1598C2.4904 10.5544 2.2569 11.4269 2.65074 12.1094L3.12443 12.9264C3.30947 13.2603 3.61994 13.5066 3.98713 13.611C4.35432 13.7154 4.74796 13.6691 5.08095 13.4824C5.40829 13.2914 5.79838 13.2391 6.16449 13.3371C6.5306 13.435 6.84241 13.6752 7.03061 14.0042C7.15401 14.2121 7.22032 14.4489 7.22283 14.6907C7.22283 15.4831 7.8652 16.1255 8.65761 16.1255H9.59811C10.3878 16.1255 11.0291 15.4873 11.0329 14.6975C11.0311 14.3165 11.1816 13.9504 11.4511 13.681C11.7206 13.4115 12.0866 13.2609 12.4677 13.2628C12.7089 13.2692 12.9447 13.3353 13.1542 13.455C13.8388 13.8494 14.7134 13.6162 15.1107 12.9332L15.605 12.1094C15.7963 11.7811 15.8488 11.3899 15.7509 11.0227C15.653 10.6555 15.4127 10.3424 15.0832 10.1529C14.7538 9.9634 14.5135 9.65036 14.4156 9.28313C14.3177 8.91591 14.3702 8.52479 14.5615 8.1964C14.6859 7.97918 14.866 7.79908 15.0832 7.67466C15.7621 7.2776 15.9948 6.40805 15.605 5.725V5.71814Z" stroke="white" stroke-width="1.5" stroke-linecap="round" stroke-linejoin="round"/>
<path d="M9.13129 10.8947C10.2232 10.8947 11.1084 10.0095 11.1084 8.91755C11.1084 7.82561 10.2232 6.94043 9.13129 6.94043C8.03936 6.94043 7.15418 7.82561 7.15418 8.91755C7.15418 10.0095 8.03936 10.8947 9.13129 10.8947Z" stroke="white" stroke-width="1.5" stroke-linecap="round" stroke-linejoin="round"/>
</svg>
