<svg width="18" height="18" viewBox="0 0 18 18" fill="none" xmlns="http://www.w3.org/2000/svg">
<path fill-rule="evenodd" clip-rule="evenodd" d="M7.19363 11.4053C9.96038 11.4053 12.3251 11.8245 12.3251 13.4993C12.3251 15.174 9.97613 15.6053 7.19363 15.6053C4.42613 15.6053 2.06213 15.1898 2.06213 13.5143C2.06213 11.8388 4.41038 11.4053 7.19363 11.4053Z" stroke="#A9ABAD" stroke-width="1.5" stroke-linecap="round" stroke-linejoin="round"/>
<path fill-rule="evenodd" clip-rule="evenodd" d="M7.19367 9.015C5.37717 9.015 3.90417 7.54275 3.90417 5.72625C3.90417 3.90975 5.37717 2.4375 7.19367 2.4375C9.00942 2.4375 10.4824 3.90975 10.4824 5.72625C10.4892 7.536 9.02667 9.00825 7.21692 9.015H7.19367Z" stroke="#A9ABAD" stroke-width="1.5" stroke-linecap="round" stroke-linejoin="round"/>
<path d="M12.3623 8.16096C13.5631 7.99221 14.4878 6.96171 14.4901 5.71446C14.4901 4.48521 13.5938 3.46521 12.4186 3.27246" stroke="#A9ABAD" stroke-width="1.5" stroke-linecap="round" stroke-linejoin="round"/>
<path d="M13.9465 11.0488C15.1098 11.2221 15.922 11.6301 15.922 12.4701C15.922 13.0483 15.5395 13.4233 14.9215 13.6581" stroke="#A9ABAD" stroke-width="1.5" stroke-linecap="round" stroke-linejoin="round"/>
</svg>
